<?xml version="1.0" encoding="utf-8"?>
<!-- Generator: Adobe Illustrator 19.1.0, SVG Export Plug-In . SVG Version: 6.00 Build 0)  -->
<svg version="1.1" id="Layer_1" xmlns="http://www.w3.org/2000/svg" xmlns:xlink="http://www.w3.org/1999/xlink" x="0px" y="0px"
	 viewBox="0 0 200 74.3" style="enable-background:new 0 0 200 74.3;" xml:space="preserve">
<style type="text/css">
	.st0{fill:#0593D0;}
	.st1{fill:#A09D9D;}
</style>
<g>
	<g>
		<g>
			<path class="st0" d="M46.5,17.6v24.3c0,1.7-0.4,3-1.2,3.8c-0.8,0.9-1.8,1.3-3.1,1.3c-1.2,0-2.2-0.4-3-1.3
				c-0.8-0.9-1.2-2.1-1.2-3.8V17.8c0-1.7,0.4-2.9,1.2-3.8c0.8-0.8,1.8-1.3,3-1.3c1.2,0,2.3,0.4,3.1,1.3
				C46.1,14.9,46.5,16.1,46.5,17.6"/>
			<path class="st0" d="M135.9,41.9V5.4c0-1.7,0.4-3,1.1-3.8c0.7-0.9,1.8-1.3,3-1.3c1.3,0,2.3,0.4,3.1,1.3c0.8,0.9,1.2,2.1,1.2,3.8
				v36.5c0,1.7-0.4,3-1.2,3.8c-0.8,0.9-1.8,1.3-3.1,1.3c-1.2,0-2.2-0.4-3-1.3C136.3,44.8,135.9,43.5,135.9,41.9"/>
			<path class="st0" d="M154.9,27.2h15.3c-0.2-2.9-1-5-2.3-6.5c-1.3-1.4-3.1-2.1-5.3-2.1c-2.1,0-3.8,0.7-5.2,2.2
				C156,22.2,155.1,24.4,154.9,27.2 M171.3,33.3h-16.5c-0.1,1.3,0.4,2.5,1.2,3.8c0.9,1.4,1.7,2.6,3,3.3c1.2,0.7,2.6,1.1,4.1,1.1
				c1,0,1.9-0.1,2.8-0.4c0.8-0.2,1.6-0.6,2.4-1.1c0.8-0.5,1.5-1,2.2-1.6c0.7-0.6,1.5-1.4,2.6-2.3c0.4-0.4,1-0.6,1.8-0.6
				c0.9,0,1.6,0.2,2.1,0.7c0.5,0.5,0.8,1.1,0.8,2c0,0.8-0.3,1.6-0.9,2.7c-0.6,1-1.5,2-2.7,2.9c-1.2,0.9-2.7,1.7-4.5,2.3
				c-1.8,0.6-3.9,0.9-6.3,0.9c-5.4,0-9.6-1.5-12.6-4.6c-3-3.1-4.5-7.3-4.5-12.5c0-2.5,0.4-4.8,1.1-6.9c0.7-2.1,1.8-4,3.2-5.5
				c1.4-1.5,3.2-2.7,5.2-3.5c2.1-0.8,4.4-1.2,6.9-1.2c3.3,0,6.1,0.7,8.5,2.1c2.4,1.4,4.1,3.2,5.3,5.4c1.2,2.2,1.8,4.4,1.8,6.7
				c0,2.1-0.5,4.6-1.8,5.4C175.3,33,173.5,33.3,171.3,33.3"/>
			<path class="st0" d="M85,12.8L85,12.8c-4.3,0-8.1,1.7-10.6,4.9c-1.3-3-4.3-4.8-7.8-4.8h-0.7c-3.3,0-6.2,1.6-7.6,4.4v-0.4
				c0-1.4-0.4-2.1-1.2-2.9c-0.8-0.8-1.7-1.2-2.9-1.2c-1.2,0-2.2,0.4-2.9,1.2c-0.7,0.8-1.1,2-1.1,3.6v24.1c0,1.7,0.4,3.1,1.2,4
				c0.8,0.9,1.9,1.3,3.1,1.3c1.3,0,2.3-0.4,3.1-1.3c0.8-0.9,1.2-2.2,1.2-4v-7c0,0,0,0,0,0v-9.2c0-3,2.5-5.5,5.5-5.5h0.1
				c3,0,5.5,2.5,5.5,5.5v12c0,0,0,0,0,0l0,4.2c0,1.8,0.4,3.1,1.2,4c0.8,0.9,1.8,1.3,3.1,1.3c1.3,0,2.4-0.4,3.2-1.3
				c0.6-0.7,1-1.6,1.1-2.7V25.5c0-3,2.5-5.5,5.5-5.5c3,0,5.5,2.5,5.5,5.5v16.6c0.1,1.5,0.5,2.7,1.2,3.5c0.8,0.9,1.9,1.3,3.1,1.3
				c1.3,0,2.4-0.4,3.2-1.3c0.8-0.9,1.2-2.2,1.2-4V27.4l0-1.1C98.5,18.9,92.4,12.8,85,12.8"/>
			<path class="st1" d="M42.3,8.9c-1.2,0-2.2-0.4-3-1.1c-0.8-0.7-1.2-1.7-1.2-3.1c0-1.2,0.4-2.2,1.3-2.9c0.9-0.8,1.8-1.2,3-1.2
				c1.1,0,2.1,0.3,2.9,1c0.8,0.7,1.3,1.7,1.3,3.1c0,1.3-0.4,2.3-1.2,3C44.4,8.5,43.5,8.9,42.3,8.9"/>
		</g>
		<g>
			<path class="st0" d="M36.1,32.7c0,2.7-0.7,5.2-2.1,7.3c-1.4,2.2-3.5,3.9-6.2,5.1c-2.7,1.2-5.9,1.8-9.6,1.8c-4.4,0-8.1-0.8-11-2.5
				c-2-1.2-3.7-2.8-5-4.8c-1.3-2-1.9-4-1.9-5.9c0-1.1,0.4-2.1,1.2-2.8c0.8-0.8,1.7-1.2,2.9-1.2c1,0,1.8,0.3,2.4,0.9
				c0.7,0.6,1.2,1.5,1.7,2.7c0.6,1.4,1.2,2.6,1.9,3.6c0.7,1,1.6,1.8,2.8,2.4c1.2,0.6,2.8,0.9,4.8,0.9c2.7,0,4.9-0.6,6.6-1.9
				c1.7-1.3,2.5-2.8,2.5-4.7c0-1.5-0.5-2.7-1.4-3.6c-0.9-0.9-2.1-1.6-3.5-2.1c-1.4-0.5-3.4-1-5.8-1.6c-3.2-0.8-5.9-1.6-8.1-2.7
				c-2.2-1-3.9-2.4-5.2-4.1c-1.3-1.8-1.9-3.9-1.9-6.5c0-2.5,0.7-4.7,2-6.6S6.5,3,9.1,2c2.6-1,5.6-1.6,9-1.6c2.8,0,5.2,0.3,7.2,1
				s3.7,1.6,5,2.7c1.3,1.1,2.3,2.3,2.9,3.6c0.6,1.2,0.9,2.5,0.9,3.7c0,1.1-0.4,2.1-1.2,2.9s-1.7,1.3-2.9,1.3c-1,0-1.8-0.3-2.4-0.8
				c-0.5-0.5-1.1-1.4-1.8-2.6c-0.8-1.7-1.8-3-2.9-4c-1.1-1-3-1.4-5.5-1.4c-2.4,0-4.3,0.5-5.7,1.6c-1.4,1-2.2,2.3-2.2,3.7
				c0,0.9,0.2,1.7,0.7,2.3c0.5,0.7,1.2,1.2,2,1.7c0.9,0.5,1.7,0.8,2.6,1.1c0.9,0.3,2.3,0.7,4.4,1.2c2.5,0.6,4.8,1.2,6.9,2
				c2.1,0.7,3.8,1.6,5.3,2.6c1.4,1,2.6,2.3,3.4,3.9C35.7,28.5,36.1,30.4,36.1,32.7z"/>
		</g>
		<path class="st0" d="M131.9,20.7c-1.3-2.6-3-4.5-5.2-5.9c-2.2-1.3-4.6-2-7.2-2c-2.2,0-4.1,0.5-5.8,1.4c-1.7,0.9-3.4,2.3-4.9,4.3
			v-1c0-1.5-0.4-2.7-1.1-3.5c-0.8-0.8-1.7-1.2-2.9-1.2c-1.2,0-2.2,0.4-2.9,1.2c-0.7,0.8-1,2-1,3.6v36.3c0,1.8,0.3,3.2,0.8,4.2
			c0.5,1,1.6,1.4,3.1,1.4c2.7,0,4-1.8,4-5.5V41.3c1.5,1.9,3,3.3,4.7,4.3c1.6,1,3.7,1.4,6.1,1.4c2,0,3.9-0.4,5.6-1.2
			c1.7-0.8,3.2-1.9,4.5-3.4c1.3-1.5,2.3-3.3,3-5.5c0.7-2.2,1.1-4.5,1.1-7.1C133.8,26.3,133.2,23.3,131.9,20.7z M126.1,35.7
			c-0.7,1.5-1.7,2.6-2.9,3.4c-1.2,0.8-2.5,1.1-4,1.1c-2.4,0-4.4-0.9-6-2.6c-1.6-1.7-2.4-4.2-2.4-7.3c0-3.3,0.8-5.8,2.4-7.5
			c1.6-1.7,3.6-2.6,6-2.6c1.5,0,2.9,0.4,4.1,1.2c1.2,0.8,2.2,1.9,2.9,3.4c0.7,1.5,1,3.3,1,5.3C127.2,32.4,126.8,34.2,126.1,35.7z"/>
	</g>
	<g>
		<path class="st1" d="M112.3,74V53.1h2.8v8.6h10.8v-8.6h2.8V74h-2.8v-9.8h-10.8V74H112.3z"/>
		<path class="st1" d="M143.3,69.1l2.6,0.3c-0.4,1.5-1.2,2.7-2.3,3.6c-1.1,0.9-2.6,1.3-4.3,1.3c-2.2,0-4-0.7-5.2-2
			c-1.3-1.4-1.9-3.3-1.9-5.7c0-2.5,0.7-4.5,2-5.9c1.3-1.4,3-2.1,5.1-2.1c2,0,3.7,0.7,4.9,2.1c1.3,1.4,1.9,3.3,1.9,5.8
			c0,0.2,0,0.4,0,0.7h-11.2c0.1,1.7,0.6,2.9,1.4,3.8c0.8,0.9,1.9,1.3,3.2,1.3c0.9,0,1.7-0.2,2.4-0.7C142.3,71,142.9,70.2,143.3,69.1
			z M134.9,65h8.4c-0.1-1.3-0.4-2.2-1-2.9c-0.8-1-1.9-1.5-3.2-1.5c-1.2,0-2.2,0.4-3,1.2C135.4,62.6,134.9,63.7,134.9,65z"/>
		<path class="st1" d="M160.7,72.1c-0.9,0.8-1.9,1.4-2.7,1.7c-0.9,0.3-1.8,0.5-2.8,0.5c-1.7,0-2.9-0.4-3.8-1.2
			c-0.9-0.8-1.3-1.8-1.3-3.1c0-0.7,0.2-1.4,0.5-2c0.3-0.6,0.8-1.1,1.3-1.5s1.2-0.6,1.8-0.8c0.5-0.1,1.3-0.3,2.3-0.4
			c2.1-0.2,3.6-0.5,4.6-0.9c0-0.4,0-0.6,0-0.7c0-1-0.2-1.8-0.7-2.2c-0.7-0.6-1.6-0.9-2.9-0.9c-1.2,0-2.1,0.2-2.7,0.6
			c-0.6,0.4-1,1.2-1.3,2.2l-2.5-0.3c0.2-1.1,0.6-1.9,1.1-2.6c0.5-0.7,1.3-1.2,2.3-1.5c1-0.4,2.1-0.5,3.4-0.5c1.3,0,2.3,0.2,3.1,0.5
			c0.8,0.3,1.4,0.7,1.8,1.1c0.4,0.5,0.6,1,0.8,1.7c0.1,0.4,0.1,1.2,0.1,2.4v3.4c0,2.4,0.1,3.9,0.2,4.5c0.1,0.6,0.3,1.2,0.6,1.8h-2.7
			C160.9,73.4,160.7,72.8,160.7,72.1z M160.5,66.4c-0.9,0.4-2.3,0.7-4.2,1c-1.1,0.2-1.8,0.3-2.2,0.5c-0.4,0.2-0.8,0.5-1,0.8
			c-0.2,0.4-0.4,0.8-0.4,1.2c0,0.7,0.3,1.2,0.8,1.7c0.5,0.5,1.3,0.7,2.3,0.7c1,0,1.9-0.2,2.6-0.6s1.3-1,1.7-1.8
			c0.3-0.6,0.4-1.4,0.4-2.6V66.4z"/>
		<path class="st1" d="M168.8,74V53.1h2.6V74H168.8z"/>
		<path class="st1" d="M182.6,71.7l0.4,2.3c-0.7,0.2-1.4,0.2-1.9,0.2c-0.9,0-1.6-0.1-2.2-0.4c-0.5-0.3-0.9-0.7-1.1-1.2
			c-0.2-0.5-0.3-1.5-0.3-3v-8.7h-1.9v-2h1.9v-3.7l2.5-1.5v5.3h2.6v2H180v8.8c0,0.7,0,1.2,0.1,1.4c0.1,0.2,0.2,0.4,0.4,0.5
			c0.2,0.1,0.5,0.2,0.9,0.2C181.7,71.8,182.1,71.7,182.6,71.7z"/>
		<path class="st1" d="M187,74V53.1h2.6v7.5c1.2-1.4,2.7-2.1,4.5-2.1c1.1,0,2.1,0.2,2.9,0.7c0.8,0.4,1.4,1,1.8,1.8
			c0.4,0.8,0.5,1.9,0.5,3.4V74h-2.6v-9.6c0-1.3-0.3-2.2-0.8-2.8c-0.6-0.6-1.3-0.9-2.4-0.9c-0.8,0-1.5,0.2-2.1,0.6
			c-0.7,0.4-1.1,0.9-1.4,1.6c-0.3,0.7-0.4,1.6-0.4,2.8V74H187z"/>
	</g>
</g>
</svg>
